<svg xmlns="http://www.w3.org/2000/svg" viewBox="0 0 165.448 40.991" shape-rendering="geometricPrecision" image-rendering="optimizeQuality" fill-rule="evenodd" xmlns:v="https://vecta.io/nano"><path d="M11.778.39h141.893c6.263 0 11.388 5.17 11.388 11.49v17.231c0 6.32-5.124 11.49-11.388 11.49H11.778C5.514 40.601.39 35.43.39 29.111V11.88C.39 5.56 5.514.39 11.778.39z" stroke="#292b6e" stroke-width=".78" fill="#fff"/><path d="M74.123 28.302h26.695c2.053 0 3.732 1.537 3.732 3.417v1.723c0 1.879-1.679 3.417-3.732 3.417H74.123c-2.053 0-3.732-1.538-3.732-3.417v-1.724c0-1.879 1.679-3.417 3.732-3.417z" stroke="#1f1a17" stroke-width=".184" fill="#292b6e"/><g fill-rule="nonzero"><path d="M74.655 30.327h2.028c.399 0 .722.055.969.164s.449.266.61.47.277.442.35.714a3.35 3.35 0 0 1 .108.862c0 .476-.054.845-.161 1.107s-.256.482-.447.658-.395.295-.614.354c-.299.081-.571.121-.813.121h-2.028v-4.451zm1.365 1.008v2.431h.334c.286 0 .489-.031.609-.095a.65.65 0 0 0 .284-.334c.068-.159.102-.417.102-.773 0-.471-.076-.794-.228-.968s-.406-.261-.76-.261h-.34zm3.414-1.008h3.657v.95h-2.289v.708h2.124v.908h-2.124v.877h2.356v1.008h-3.724v-4.451zm4.148 0h4.149v1.1h-1.393v3.351h-1.365v-3.351h-1.391v-1.1zm7.065 3.716h-1.555l-.214.735h-1.395l1.66-4.451h1.488l1.661 4.451h-1.428l-.217-.735zm-.286-.963l-.489-1.6-.485 1.6h.974zm2.367-2.754h1.366v3.355h2.13v1.096h-3.496v-4.451zm4.17 0h1.368v4.451h-1.368v-4.451zm2.401 0h1.368v4.451H99.3v-4.451z" fill="#fff"/><path d="M22.618 11.169l1.92-.124c.041.322.126.567.254.737.207.273.505.409.891.409.287 0 .509-.069.666-.209s.233-.302.233-.485c0-.174-.073-.331-.222-.47s-.493-.269-1.034-.391c-.885-.206-1.515-.477-1.892-.818a1.67 1.67 0 0 1-.57-1.302 1.81 1.81 0 0 1 .292-.983c.195-.308.486-.55.877-.727s.926-.264 1.605-.264c.835 0 1.472.16 1.909.481s.698.831.781 1.53l-1.902.115c-.05-.303-.157-.525-.319-.663s-.385-.206-.669-.206c-.236 0-.412.05-.53.154s-.178.228-.178.375c0 .107.049.203.146.289s.321.171.678.248c.882.196 1.512.396 1.894.597s.66.449.833.748.261.63.261.999a2.19 2.19 0 0 1-.348 1.195 2.18 2.18 0 0 1-.971.831c-.415.188-.939.283-1.572.283-1.11 0-1.879-.22-2.306-.663s-.67-1.002-.727-1.684zm6.684-1.137c0-1.101.298-1.959.891-2.571s1.421-.92 2.481-.92c1.087 0 1.924.302 2.513.905s.882 1.447.882 2.532c0 .788-.129 1.436-.386 1.94s-.628.897-1.113 1.178-1.09.421-1.815.421c-.736 0-1.345-.121-1.829-.363s-.873-.627-1.173-1.151-.45-1.181-.45-1.969zm2.019.009c0 .682.122 1.17.366 1.468s.579.446 1 .446c.433 0 .769-.146 1.006-.437s.357-.815.357-1.569c0-.636-.125-1.099-.372-1.393s-.584-.438-1.009-.438c-.406 0-.733.148-.979.446s-.369.79-.369 1.476zm5.832-3.386h2.019v5.084h3.148v1.662h-5.167V6.655zm10.096 0h2.014v4.022c0 .399-.061.774-.181 1.129a2.46 2.46 0 0 1-.565.93c-.256.266-.526.451-.809.559-.392.149-.862.225-1.412.225a8.4 8.4 0 0 1-1.04-.069c-.376-.047-.689-.137-.941-.273a2.38 2.38 0 0 1-.693-.583c-.21-.252-.353-.51-.43-.777-.125-.429-.187-.809-.187-1.14V6.655h2.014v4.118c0 .369.099.657.295.862s.471.311.822.311.62-.102.818-.306.295-.493.295-.867V6.655zm2.891 0h6.132v1.666h-2.058V13.4h-2.017V8.322H50.14V6.655zm2.084 7.504l.134-.542a3.19 3.19 0 0 1 .783-.107c.508 0 .859.089 1.052.267a.83.83 0 0 1 .289.631.94.94 0 0 1-.131.455c-.087.157-.245.281-.47.377s-.526.143-.9.143c-.339 0-.736-.041-1.193-.119v-.567a5.05 5.05 0 0 0 .983.093c.255 0 .429-.036.52-.107a.33.33 0 0 0 .135-.275.3.3 0 0 0-.111-.231c-.074-.064-.19-.096-.348-.096a4.19 4.19 0 0 0-.743.077zm5.04-7.504h2.022v6.746h-2.022V6.655zm3.215 3.377c0-1.101.298-1.959.891-2.571s1.421-.92 2.481-.92c1.087 0 1.924.302 2.513.905s.882 1.447.882 2.532c0 .788-.129 1.436-.386 1.94s-.628.897-1.113 1.178-1.09.421-1.815.421c-.736 0-1.345-.121-1.829-.363s-.873-.627-1.173-1.151-.45-1.181-.45-1.969zm2.019.009c0 .682.122 1.17.366 1.468s.579.446 1 .446c.433 0 .769-.146 1.006-.437s.357-.815.357-1.569c0-.636-.125-1.099-.372-1.393s-.584-.438-1.009-.438c-.406 0-.733.148-.979.446s-.369.79-.369 1.476zm5.846-3.386h1.885l2.458 3.732V6.655h1.902v6.746h-1.902l-2.446-3.703v3.703h-1.897V6.655zm11.511 5.632h-2.298l-.316 1.113H75.18l2.453-6.746h2.199l2.455 6.746h-2.111l-.321-1.113zm-.423-1.459l-.722-2.425-.717 2.425h1.439zm3.527 2.573V6.655h3.362c.623 0 1.1.055 1.429.166a1.53 1.53 0 0 1 .798.614c.202.3.303.663.303 1.092 0 .375-.078.697-.231.969a1.84 1.84 0 0 1-.637.661c-.173.107-.409.196-.708.265.24.083.415.166.526.25a2.14 2.14 0 0 1 .322.353c.141.18.236.32.283.419l.976 1.955h-2.28l-1.078-2.062c-.137-.266-.258-.44-.366-.52a.83.83 0 0 0-.494-.155h-.178v2.737H82.96zm2.026-4.013h.851c.091 0 .269-.03.533-.091a.54.54 0 0 0 .328-.212.64.64 0 0 0 .126-.391c0-.218-.067-.385-.201-.501s-.385-.176-.752-.176h-.886v1.371zm5.037-2.733h5.405v1.44h-3.384v1.073h3.139v1.376h-3.139v1.329h3.482v1.528h-5.504V6.655zm10.607 5.632h-2.298l-.316 1.113h-2.061l2.453-6.746h2.199l2.455 6.746h-2.111l-.321-1.113zm-.423-1.459l-.722-2.425-.717 2.425h1.439zm6.287-.796c0-1.101.298-1.959.891-2.571s1.421-.92 2.481-.92c1.087 0 1.924.302 2.513.905s.882 1.447.882 2.532c0 .788-.129 1.436-.386 1.94s-.628.897-1.113 1.178-1.09.421-1.815.421c-.736 0-1.345-.121-1.829-.363s-.873-.627-1.173-1.151-.45-1.181-.45-1.969zm2.019.009c0 .682.122 1.17.366 1.468s.579.446 1 .446c.433 0 .769-.146 1.006-.437s.357-.815.357-1.569c0-.636-.125-1.099-.372-1.393s-.584-.438-1.009-.438c-.406 0-.733.148-.979.446s-.369.79-.369 1.476zm5.846-3.386h1.885l2.458 3.732V6.655h1.902v6.746h-1.902l-2.446-3.703v3.703h-1.897V6.655zm7.584 0h2.019v5.084h3.148v1.662h-5.167V6.655zm6.164 0h2.022v6.746h-2.022V6.655zm3.482 0h1.885l2.458 3.732V6.655h1.902v6.746h-1.902l-2.446-3.703v3.703h-1.897V6.655zm7.581 0h5.405v1.44h-3.384v1.073h3.139v1.376h-3.139v1.329h3.482v1.528h-5.504V6.655zM60.434 23.176h-2.3l-.316 1.098h-2.063l2.455-6.651h2.201l2.457 6.651h-2.113l-.321-1.098zm-.423-1.439l-.723-2.391-.718 2.391h1.441zm6.546-4.115h2.02v5.013h3.15v1.638h-5.171v-6.651zm6.168 0h2.023v6.651h-2.023v-6.651zm3.013 0h6.137v1.643h-2.06v5.008h-2.019v-5.008h-2.058v-1.643zm7.13 0h2.023v6.651h-2.023v-6.651zm6.757 4.242v-1.383h3.118v2.835c-.596.413-1.124.697-1.584.846s-1.004.225-1.634.225c-.776 0-1.407-.135-1.895-.404a2.73 2.73 0 0 1-1.136-1.202c-.267-.533-.405-1.143-.405-1.832 0-.726.147-1.358.441-1.896a2.89 2.89 0 0 1 1.293-1.222c.443-.215 1.039-.322 1.787-.322.721 0 1.261.067 1.62.2a2.11 2.11 0 0 1 .891.62c.236.279.414.633.533 1.064l-1.947.353a1.08 1.08 0 0 0-.409-.576c-.191-.133-.435-.2-.732-.2-.443 0-.796.156-1.059.469s-.396.808-.396 1.487c0 .72.134 1.234.4 1.542s.636.463 1.112.463a2.06 2.06 0 0 0 .645-.101c.204-.067.441-.18.704-.339v-.627h-1.349zm4.398-4.242h2.023v6.651h-2.023v-6.651zm3.552 0h2.023v6.651h-2.023v-6.651zm3.471 0h2.02v5.013h3.15v1.638h-5.171v-6.651zm5.677 3.33c0-1.086.298-1.931.891-2.535s1.422-.908 2.483-.908c1.088 0 1.926.297 2.515.892s.882 1.426.882 2.496c0 .777-.129 1.415-.386 1.913a2.78 2.78 0 0 1-1.114 1.162c-.486.278-1.091.415-1.816.415-.736 0-1.346-.119-1.83-.358s-.873-.618-1.174-1.135-.45-1.164-.45-1.942zm2.02.009c0 .672.122 1.154.367 1.448s.58.44 1.001.44c.434 0 .77-.144 1.007-.431s.357-.804.357-1.547c0-.627-.125-1.084-.373-1.374s-.584-.432-1.01-.432c-.406 0-.733.146-.98.44s-.37.779-.37 1.456zm5.864 3.312v-6.651h3.365c.624 0 1.101.054 1.43.164a1.52 1.52 0 0 1 .799.606c.202.294.303.653.303 1.076 0 .37-.078.688-.231.956a1.85 1.85 0 0 1-.637.652 2.41 2.41 0 0 1-.709.262c.24.082.415.164.526.246.073.054.181.17.323.348s.236.316.283.413l.977 1.928h-2.282l-1.078-2.033c-.137-.262-.259-.433-.367-.512-.144-.102-.31-.153-.494-.153h-.178v2.699h-2.028zm2.028-3.957h.852c.091 0 .269-.029.534-.09a.54.54 0 0 0 .328-.209c.084-.111.126-.24.126-.386 0-.215-.067-.379-.201-.494s-.385-.173-.753-.173h-.887v1.352z" fill="#292b6e"/></g></svg>